<svg width="176" height="57" viewBox="0 0 176 57" fill="none" xmlns="http://www.w3.org/2000/svg">
<rect x="1" y="1" width="174" height="55" stroke="white"/>
<path d="M34.7 34V22.8H36.188V34H34.7ZM46.0306 31.152V22.8H47.5186V34H46.3186L40.5586 25.632V34H39.0706V22.8H40.2706L46.0306 31.152ZM61.4024 28.4C61.4024 29.936 60.8744 31.264 59.8184 32.384L61.0504 33.616L60.0264 34.544L58.7624 33.264C57.781 33.8933 56.725 34.208 55.5944 34.208C53.9944 34.208 52.629 33.6427 51.4984 32.512C50.3677 31.3813 49.8024 30.0107 49.8024 28.4C49.8024 26.7893 50.3677 25.4187 51.4984 24.288C52.629 23.1573 53.9944 22.592 55.5944 22.592C57.1944 22.592 58.5597 23.1573 59.6904 24.288C60.8317 25.4293 61.4024 26.8 61.4024 28.4ZM55.5944 32.752C56.373 32.752 57.077 32.5707 57.7064 32.208L55.4664 29.952L56.4904 29.04L58.7944 31.344C59.541 30.5333 59.9144 29.552 59.9144 28.4C59.9144 27.1733 59.493 26.1387 58.6504 25.296C57.8184 24.4533 56.7997 24.032 55.5944 24.032C54.389 24.032 53.365 24.4533 52.5224 25.296C51.6904 26.1493 51.2744 27.184 51.2744 28.4C51.2744 29.616 51.6904 30.6453 52.5224 31.488C53.365 32.3307 54.389 32.752 55.5944 32.752ZM63.5273 30.24V22.8H65.0153V30.176C65.0153 30.976 65.2499 31.6053 65.7193 32.064C66.1993 32.5227 66.8713 32.752 67.7353 32.752C68.5993 32.752 69.2659 32.5227 69.7353 32.064C70.2153 31.6053 70.4553 30.976 70.4553 30.176V22.8H71.9273V30.24C71.9273 31.456 71.5379 32.4213 70.7593 33.136C69.9806 33.8507 68.9726 34.208 67.7353 34.208C66.4873 34.208 65.4739 33.8507 64.6953 33.136C63.9166 32.4213 63.5273 31.456 63.5273 30.24ZM74.6825 34V22.8H76.1705V34H74.6825ZM87.3411 34H85.6931L83.1811 29.712H80.5411V34H79.0531V22.8H83.5331C84.4931 22.8 85.3145 23.1413 85.9971 23.824C86.6798 24.496 87.0211 25.312 87.0211 26.272C87.0211 26.9973 86.8025 27.6587 86.3651 28.256C85.9171 28.864 85.3625 29.2853 84.7011 29.52L87.3411 34ZM83.5331 24.192H80.5411V28.368H83.5331C84.0878 28.368 84.5571 28.1653 84.9411 27.76C85.3358 27.3547 85.5331 26.8587 85.5331 26.272C85.5331 25.6853 85.3358 25.1947 84.9411 24.8C84.5571 24.3947 84.0878 24.192 83.5331 24.192ZM90.8024 29.04V32.592H96.0024V34H89.3144V22.8H95.9224V24.208H90.8024V27.648H95.5224V29.04H90.8024ZM109.719 31.152V22.8H111.207V34H110.007L104.247 25.632V34H102.759V22.8H103.959L109.719 31.152ZM113.49 28.4C113.49 26.7787 114.05 25.408 115.17 24.288C116.29 23.1573 117.661 22.592 119.282 22.592C120.904 22.592 122.275 23.1573 123.394 24.288C124.525 25.408 125.09 26.7787 125.09 28.4C125.09 30.0107 124.525 31.3813 123.394 32.512C122.275 33.6427 120.904 34.208 119.282 34.208C117.661 34.208 116.29 33.6427 115.17 32.512C114.05 31.3707 113.49 30 113.49 28.4ZM123.602 28.4C123.602 27.1627 123.186 26.128 122.354 25.296C121.544 24.4533 120.52 24.032 119.282 24.032C118.056 24.032 117.027 24.4533 116.194 25.296C115.373 26.1387 114.962 27.1733 114.962 28.4C114.962 29.616 115.373 30.6507 116.194 31.504C117.027 32.336 118.056 32.752 119.282 32.752C120.52 32.752 121.544 32.336 122.354 31.504C123.186 30.6507 123.602 29.616 123.602 28.4ZM131.003 34H129.275L126.059 22.8H127.627L130.187 32.016L132.907 22.8H134.411L137.131 32.016L139.691 22.8H141.259L138.043 34H136.315L133.659 25.056L131.003 34Z" fill="white"/>
</svg>
