<svg width="296" height="56" viewBox="0 0 296 56" fill="none" xmlns="http://www.w3.org/2000/svg">
<rect width="296" height="56" fill="#121212"/>
<path d="M102.1 27.692C102.623 27.948 103.033 28.3053 103.332 28.764C103.631 29.2227 103.78 29.7453 103.78 30.332C103.78 31.228 103.465 31.98 102.836 32.588C102.207 33.196 101.439 33.5 100.532 33.5H95.7V22.3H100.18C101.065 22.3 101.807 22.5933 102.404 23.18C103.012 23.7667 103.316 24.492 103.316 25.356C103.316 26.3587 102.911 27.1373 102.1 27.692ZM100.18 23.692H97.188V27.116H100.18C100.649 27.116 101.044 26.9507 101.364 26.62C101.684 26.2893 101.844 25.884 101.844 25.404C101.844 24.9347 101.679 24.5347 101.348 24.204C101.028 23.8627 100.639 23.692 100.18 23.692ZM97.188 32.108H100.532C101.033 32.108 101.455 31.932 101.796 31.58C102.137 31.228 102.308 30.796 102.308 30.284C102.308 29.7827 102.132 29.356 101.78 29.004C101.449 28.652 101.033 28.476 100.532 28.476H97.188V32.108ZM105.432 27.9C105.432 26.2787 105.992 24.908 107.112 23.788C108.232 22.6573 109.602 22.092 111.224 22.092C112.845 22.092 114.216 22.6573 115.336 23.788C116.466 24.908 117.032 26.2787 117.032 27.9C117.032 29.5107 116.466 30.8813 115.336 32.012C114.216 33.1427 112.845 33.708 111.224 33.708C109.602 33.708 108.232 33.1427 107.112 32.012C105.992 30.8707 105.432 29.5 105.432 27.9ZM115.544 27.9C115.544 26.6627 115.128 25.628 114.296 24.796C113.485 23.9533 112.461 23.532 111.224 23.532C109.997 23.532 108.968 23.9533 108.136 24.796C107.314 25.6387 106.904 26.6733 106.904 27.9C106.904 29.116 107.314 30.1507 108.136 31.004C108.968 31.836 109.997 32.252 111.224 32.252C112.461 32.252 113.485 31.836 114.296 31.004C115.128 30.1507 115.544 29.116 115.544 27.9ZM118.709 27.9C118.709 26.2787 119.269 24.908 120.389 23.788C121.509 22.6573 122.879 22.092 124.501 22.092C126.122 22.092 127.493 22.6573 128.613 23.788C129.743 24.908 130.309 26.2787 130.309 27.9C130.309 29.5107 129.743 30.8813 128.613 32.012C127.493 33.1427 126.122 33.708 124.501 33.708C122.879 33.708 121.509 33.1427 120.389 32.012C119.269 30.8707 118.709 29.5 118.709 27.9ZM128.821 27.9C128.821 26.6627 128.405 25.628 127.573 24.796C126.762 23.9533 125.738 23.532 124.501 23.532C123.274 23.532 122.245 23.9533 121.413 24.796C120.591 25.6387 120.181 26.6733 120.181 27.9C120.181 29.116 120.591 30.1507 121.413 31.004C122.245 31.836 123.274 32.252 124.501 32.252C125.738 32.252 126.762 31.836 127.573 31.004C128.405 30.1507 128.821 29.116 128.821 27.9ZM135.617 27.74L140.721 33.5H138.897L134.065 28.124V33.5H132.577V22.3H134.065V27.356L138.737 22.3H140.561L135.617 27.74ZM155.966 33.5H154.382L153.47 30.988H148.43L147.518 33.5H145.934L150.11 22.3H151.79L155.966 33.5ZM150.942 24.076L148.942 29.596H152.958L150.942 24.076ZM167.512 33.708C165.805 33.708 164.402 33.148 163.304 32.028C162.205 30.9187 161.656 29.5427 161.656 27.9C161.656 26.2573 162.205 24.8813 163.304 23.772C164.402 22.652 165.805 22.092 167.512 22.092C168.525 22.092 169.464 22.3373 170.328 22.828C171.192 23.3187 171.864 23.98 172.344 24.812L171.048 25.564C170.728 24.9453 170.248 24.4547 169.608 24.092C168.978 23.7187 168.28 23.532 167.512 23.532C166.21 23.532 165.154 23.948 164.344 24.78C163.533 25.6013 163.128 26.6413 163.128 27.9C163.128 29.148 163.533 30.1827 164.344 31.004C165.154 31.836 166.21 32.252 167.512 32.252C168.28 32.252 168.978 32.0707 169.608 31.708C170.248 31.3347 170.728 30.844 171.048 30.236L172.344 30.972C171.874 31.804 171.208 32.4707 170.344 32.972C169.49 33.4627 168.546 33.708 167.512 33.708ZM183.344 33.5H181.76L180.848 30.988H175.808L174.896 33.5H173.312L177.488 22.3H179.168L183.344 33.5ZM178.32 24.076L176.32 29.596H180.336L178.32 24.076ZM186.633 22.3V32.092H191.465V33.5H185.145V22.3H186.633ZM194.926 22.3V32.092H199.758V33.5H193.438V22.3H194.926Z" fill="white"/>
</svg>
