<svg width="180" height="56" viewBox="0 0 180 56" fill="none" xmlns="http://www.w3.org/2000/svg">
<rect x="0.5" y="0.5" width="179" height="55" stroke="#121212"/>
<path d="M28.816 33.708C27.7707 33.708 26.8747 33.468 26.128 32.988C25.392 32.4973 24.8747 31.82 24.576 30.956L25.856 30.22C26.2827 31.5747 27.28 32.252 28.848 32.252C29.6053 32.252 30.1867 32.0973 30.592 31.788C31.008 31.4787 31.216 31.0573 31.216 30.524C31.216 30.0013 31.0133 29.6013 30.608 29.324C30.2453 29.0787 29.568 28.796 28.576 28.476L27.504 28.124C27.2693 28.028 26.96 27.8893 26.576 27.708C26.2027 27.516 25.9307 27.324 25.76 27.132C25.2907 26.62 25.056 25.996 25.056 25.26C25.056 24.2787 25.3973 23.5107 26.08 22.956C26.7627 22.38 27.5947 22.092 28.576 22.092C29.4507 22.092 30.2187 22.3107 30.88 22.748C31.5413 23.1853 32.0373 23.7827 32.368 24.54L31.12 25.26C30.64 24.108 29.792 23.532 28.576 23.532C27.968 23.532 27.4773 23.6813 27.104 23.98C26.7307 24.2787 26.544 24.684 26.544 25.196C26.544 25.6867 26.72 26.06 27.072 26.316C27.4347 26.5827 28.0427 26.8493 28.896 27.116L29.552 27.324C29.9147 27.4627 30.112 27.5373 30.144 27.548C30.4853 27.676 30.8587 27.852 31.264 28.076C31.552 28.236 31.84 28.4813 32.128 28.812C32.5013 29.1853 32.688 29.7453 32.688 30.492C32.688 31.4733 32.3307 32.2573 31.616 32.844C30.8907 33.42 29.9573 33.708 28.816 33.708ZM34.786 29.74V22.3H36.274V29.676C36.274 30.476 36.5087 31.1053 36.978 31.564C37.458 32.0227 38.13 32.252 38.994 32.252C39.858 32.252 40.5247 32.0227 40.994 31.564C41.474 31.1053 41.714 30.476 41.714 29.676V22.3H43.186V29.74C43.186 30.956 42.7967 31.9213 42.018 32.636C41.2393 33.3507 40.2313 33.708 38.994 33.708C37.746 33.708 36.7327 33.3507 35.954 32.636C35.1753 31.9213 34.786 30.956 34.786 29.74ZM52.3412 27.692C52.8639 27.948 53.2746 28.3053 53.5732 28.764C53.8719 29.2227 54.0212 29.7453 54.0212 30.332C54.0212 31.228 53.7066 31.98 53.0772 32.588C52.4479 33.196 51.6799 33.5 50.7732 33.5H45.9412V22.3H50.4212C51.3066 22.3 52.0479 22.5933 52.6452 23.18C53.2532 23.7667 53.5572 24.492 53.5572 25.356C53.5572 26.3587 53.1519 27.1373 52.3412 27.692ZM50.4212 23.692H47.4292V27.116H50.4212C50.8906 27.116 51.2852 26.9507 51.6052 26.62C51.9252 26.2893 52.0852 25.884 52.0852 25.404C52.0852 24.9347 51.9199 24.5347 51.5892 24.204C51.2692 23.8627 50.8799 23.692 50.4212 23.692ZM47.4292 32.108H50.7732C51.2746 32.108 51.6959 31.932 52.0372 31.58C52.3786 31.228 52.5492 30.796 52.5492 30.284C52.5492 29.7827 52.3732 29.356 52.0212 29.004C51.6906 28.652 51.2746 28.476 50.7732 28.476H47.4292V32.108ZM59.7091 33.708C58.6638 33.708 57.7678 33.468 57.0211 32.988C56.2851 32.4973 55.7678 31.82 55.4691 30.956L56.7491 30.22C57.1758 31.5747 58.1731 32.252 59.7411 32.252C60.4985 32.252 61.0798 32.0973 61.4851 31.788C61.9011 31.4787 62.1091 31.0573 62.1091 30.524C62.1091 30.0013 61.9065 29.6013 61.5011 29.324C61.1385 29.0787 60.4611 28.796 59.4691 28.476L58.3971 28.124C58.1625 28.028 57.8531 27.8893 57.4691 27.708C57.0958 27.516 56.8238 27.324 56.6531 27.132C56.1838 26.62 55.9491 25.996 55.9491 25.26C55.9491 24.2787 56.2905 23.5107 56.9731 22.956C57.6558 22.38 58.4878 22.092 59.4691 22.092C60.3438 22.092 61.1118 22.3107 61.7731 22.748C62.4345 23.1853 62.9305 23.7827 63.2611 24.54L62.0131 25.26C61.5331 24.108 60.6851 23.532 59.4691 23.532C58.8611 23.532 58.3705 23.6813 57.9971 23.98C57.6238 24.2787 57.4371 24.684 57.4371 25.196C57.4371 25.6867 57.6131 26.06 57.9651 26.316C58.3278 26.5827 58.9358 26.8493 59.7891 27.116L60.4451 27.324C60.8078 27.4627 61.0051 27.5373 61.0371 27.548C61.3785 27.676 61.7518 27.852 62.1571 28.076C62.4451 28.236 62.7331 28.4813 63.0211 28.812C63.3945 29.1853 63.5811 29.7453 63.5811 30.492C63.5811 31.4733 63.2238 32.2573 62.5091 32.844C61.7838 33.42 60.8505 33.708 59.7091 33.708ZM71.009 33.708C69.3023 33.708 67.8997 33.148 66.801 32.028C65.7023 30.9187 65.153 29.5427 65.153 27.9C65.153 26.2573 65.7023 24.8813 66.801 23.772C67.8997 22.652 69.3023 22.092 71.009 22.092C72.0223 22.092 72.961 22.3373 73.825 22.828C74.689 23.3187 75.361 23.98 75.841 24.812L74.545 25.564C74.225 24.9453 73.745 24.4547 73.105 24.092C72.4757 23.7187 71.777 23.532 71.009 23.532C69.7077 23.532 68.6517 23.948 67.841 24.78C67.0303 25.6013 66.625 26.6413 66.625 27.9C66.625 29.148 67.0303 30.1827 67.841 31.004C68.6517 31.836 69.7077 32.252 71.009 32.252C71.777 32.252 72.4757 32.0707 73.105 31.708C73.745 31.3347 74.225 30.844 74.545 30.236L75.841 30.972C75.3717 31.804 74.705 32.4707 73.841 32.972C72.9877 33.4627 72.0437 33.708 71.009 33.708ZM86.2943 33.5H84.6463L82.1343 29.212H79.4943V33.5H78.0063V22.3H82.4863C83.4463 22.3 84.2676 22.6413 84.9503 23.324C85.6329 23.996 85.9743 24.812 85.9743 25.772C85.9743 26.4973 85.7556 27.1587 85.3183 27.756C84.8703 28.364 84.3156 28.7853 83.6543 29.02L86.2943 33.5ZM82.4863 23.692H79.4943V27.868H82.4863C83.0409 27.868 83.5103 27.6653 83.8943 27.26C84.2889 26.8547 84.4863 26.3587 84.4863 25.772C84.4863 25.1853 84.2889 24.6947 83.8943 24.3C83.5103 23.8947 83.0409 23.692 82.4863 23.692ZM88.2675 33.5V22.3H89.7555V33.5H88.2675ZM99.0381 27.692C99.5608 27.948 99.9715 28.3053 100.27 28.764C100.569 29.2227 100.718 29.7453 100.718 30.332C100.718 31.228 100.403 31.98 99.7741 32.588C99.1448 33.196 98.3768 33.5 97.4701 33.5H92.6381V22.3H97.1181C98.0035 22.3 98.7448 22.5933 99.3421 23.18C99.9501 23.7667 100.254 24.492 100.254 25.356C100.254 26.3587 99.8488 27.1373 99.0381 27.692ZM97.1181 23.692H94.1261V27.116H97.1181C97.5875 27.116 97.9821 26.9507 98.3021 26.62C98.6221 26.2893 98.7821 25.884 98.7821 25.404C98.7821 24.9347 98.6168 24.5347 98.2861 24.204C97.9661 23.8627 97.5768 23.692 97.1181 23.692ZM94.1261 32.108H97.4701C97.9715 32.108 98.3928 31.932 98.7341 31.58C99.0755 31.228 99.2461 30.796 99.2461 30.284C99.2461 29.7827 99.0701 29.356 98.7181 29.004C98.3875 28.652 97.9715 28.476 97.4701 28.476H94.1261V32.108ZM104.45 28.54V32.092H109.65V33.5H102.962V22.3H109.57V23.708H104.45V27.148H109.17V28.54H104.45ZM123.366 30.652V22.3H124.854V33.5H123.654L117.894 25.132V33.5H116.406V22.3H117.606L123.366 30.652ZM127.138 27.9C127.138 26.2787 127.698 24.908 128.818 23.788C129.938 22.6573 131.309 22.092 132.93 22.092C134.551 22.092 135.922 22.6573 137.042 23.788C138.173 24.908 138.738 26.2787 138.738 27.9C138.738 29.5107 138.173 30.8813 137.042 32.012C135.922 33.1427 134.551 33.708 132.93 33.708C131.309 33.708 129.938 33.1427 128.818 32.012C127.698 30.8707 127.138 29.5 127.138 27.9ZM137.25 27.9C137.25 26.6627 136.834 25.628 136.002 24.796C135.191 23.9533 134.167 23.532 132.93 23.532C131.703 23.532 130.674 23.9533 129.842 24.796C129.021 25.6387 128.61 26.6733 128.61 27.9C128.61 29.116 129.021 30.1507 129.842 31.004C130.674 31.836 131.703 32.252 132.93 32.252C134.167 32.252 135.191 31.836 136.002 31.004C136.834 30.1507 137.25 29.116 137.25 27.9ZM144.651 33.5H142.923L139.707 22.3H141.275L143.835 31.516L146.555 22.3H148.059L150.779 31.516L153.339 22.3H154.907L151.691 33.5H149.963L147.307 24.556L144.651 33.5Z" fill="#121212"/>
</svg>
