<svg width="304" height="56" viewBox="0 0 304 56" fill="none" xmlns="http://www.w3.org/2000/svg">
<rect width="304" height="56" fill="#121212"/>
<path d="M131.488 33.5H129.84L127.328 29.212H124.688V33.5H123.2V22.3H127.68C128.64 22.3 129.461 22.6413 130.144 23.324C130.827 23.996 131.168 24.812 131.168 25.772C131.168 26.4973 130.949 27.1587 130.512 27.756C130.064 28.364 129.509 28.7853 128.848 29.02L131.488 33.5ZM127.68 23.692H124.688V27.868H127.68C128.235 27.868 128.704 27.6653 129.088 27.26C129.483 26.8547 129.68 26.3587 129.68 25.772C129.68 25.1853 129.483 24.6947 129.088 24.3C128.704 23.8947 128.235 23.692 127.68 23.692ZM134.949 28.54V32.092H140.149V33.5H133.461V22.3H140.069V23.708H134.949V27.148H139.669V28.54H134.949ZM151.226 22.3H152.906V33.5H151.434V24.748L147.77 30.844H147.578L143.914 24.764V33.5H142.426V22.3H144.106L147.674 28.22L151.226 22.3ZM155.781 33.5V22.3H157.269V33.5H155.781ZM167.111 30.652V22.3H168.599V33.5H167.399L161.639 25.132V33.5H160.151V22.3H161.351L167.111 30.652ZM171.475 22.3H175.843C177.358 22.3 178.622 22.844 179.635 23.932C180.648 25.0093 181.155 26.332 181.155 27.9C181.155 29.4573 180.648 30.7853 179.635 31.884C178.622 32.9613 177.358 33.5 175.843 33.5H171.475V22.3ZM172.963 32.092H175.843C176.984 32.092 177.918 31.692 178.643 30.892C179.368 30.0813 179.731 29.084 179.731 27.9C179.731 26.716 179.368 25.7187 178.643 24.908C177.918 24.108 176.984 23.708 175.843 23.708H172.963V32.092Z" fill="white"/>
</svg>
