<svg width="343" height="48" viewBox="0 0 343 48" fill="none" xmlns="http://www.w3.org/2000/svg">
<rect x="0.5" y="0.5" width="342" height="47" stroke="#121212"/>
<path d="M118.214 29.182C117.299 29.182 116.515 28.972 115.862 28.552C115.218 28.1227 114.765 27.53 114.504 26.774L115.624 26.13C115.997 27.3153 116.87 27.908 118.242 27.908C118.905 27.908 119.413 27.7727 119.768 27.502C120.132 27.2313 120.314 26.8627 120.314 26.396C120.314 25.9387 120.137 25.5887 119.782 25.346C119.465 25.1313 118.872 24.884 118.004 24.604L117.066 24.296C116.861 24.212 116.59 24.0907 116.254 23.932C115.927 23.764 115.689 23.596 115.54 23.428C115.129 22.98 114.924 22.434 114.924 21.79C114.924 20.9313 115.223 20.2593 115.82 19.774C116.417 19.27 117.145 19.018 118.004 19.018C118.769 19.018 119.441 19.2093 120.02 19.592C120.599 19.9747 121.033 20.4973 121.322 21.16L120.23 21.79C119.81 20.782 119.068 20.278 118.004 20.278C117.472 20.278 117.043 20.4087 116.716 20.67C116.389 20.9313 116.226 21.286 116.226 21.734C116.226 22.1633 116.38 22.49 116.688 22.714C117.005 22.9473 117.537 23.1807 118.284 23.414L118.858 23.596C119.175 23.7173 119.348 23.7827 119.376 23.792C119.675 23.904 120.001 24.058 120.356 24.254C120.608 24.394 120.86 24.6087 121.112 24.898C121.439 25.2247 121.602 25.7147 121.602 26.368C121.602 27.2267 121.289 27.9127 120.664 28.426C120.029 28.93 119.213 29.182 118.214 29.182ZM123.368 25.71V19.2H124.67V25.654C124.67 26.354 124.875 26.9047 125.286 27.306C125.706 27.7073 126.294 27.908 127.05 27.908C127.806 27.908 128.389 27.7073 128.8 27.306C129.22 26.9047 129.43 26.354 129.43 25.654V19.2H130.718V25.71C130.718 26.774 130.377 27.6187 129.696 28.244C129.014 28.8693 128.132 29.182 127.05 29.182C125.958 29.182 125.071 28.8693 124.39 28.244C123.708 27.6187 123.368 26.774 123.368 25.71ZM138.659 23.918C139.116 24.142 139.475 24.4547 139.737 24.856C139.998 25.2573 140.129 25.7147 140.129 26.228C140.129 27.012 139.853 27.67 139.303 28.202C138.752 28.734 138.08 29 137.287 29H133.059V19.2H136.979C137.753 19.2 138.402 19.4567 138.925 19.97C139.457 20.4833 139.723 21.118 139.723 21.874C139.723 22.7513 139.368 23.4327 138.659 23.918ZM136.979 20.418H134.361V23.414H136.979C137.389 23.414 137.735 23.2693 138.015 22.98C138.295 22.6907 138.435 22.336 138.435 21.916C138.435 21.5053 138.29 21.1553 138.001 20.866C137.721 20.5673 137.38 20.418 136.979 20.418ZM134.361 27.782H137.287C137.725 27.782 138.094 27.628 138.393 27.32C138.691 27.012 138.841 26.634 138.841 26.186C138.841 25.7473 138.687 25.374 138.379 25.066C138.089 24.758 137.725 24.604 137.287 24.604H134.361V27.782ZM145.035 29.182C144.121 29.182 143.337 28.972 142.683 28.552C142.039 28.1227 141.587 27.53 141.325 26.774L142.445 26.13C142.819 27.3153 143.691 27.908 145.063 27.908C145.726 27.908 146.235 27.7727 146.589 27.502C146.953 27.2313 147.135 26.8627 147.135 26.396C147.135 25.9387 146.958 25.5887 146.603 25.346C146.286 25.1313 145.693 24.884 144.825 24.604L143.887 24.296C143.682 24.212 143.411 24.0907 143.075 23.932C142.749 23.764 142.511 23.596 142.361 23.428C141.951 22.98 141.745 22.434 141.745 21.79C141.745 20.9313 142.044 20.2593 142.641 19.774C143.239 19.27 143.967 19.018 144.825 19.018C145.591 19.018 146.263 19.2093 146.841 19.592C147.42 19.9747 147.854 20.4973 148.143 21.16L147.051 21.79C146.631 20.782 145.889 20.278 144.825 20.278C144.293 20.278 143.864 20.4087 143.537 20.67C143.211 20.9313 143.047 21.286 143.047 21.734C143.047 22.1633 143.201 22.49 143.509 22.714C143.827 22.9473 144.359 23.1807 145.105 23.414L145.679 23.596C145.997 23.7173 146.169 23.7827 146.197 23.792C146.496 23.904 146.823 24.058 147.177 24.254C147.429 24.394 147.681 24.6087 147.933 24.898C148.26 25.2247 148.423 25.7147 148.423 26.368C148.423 27.2267 148.111 27.9127 147.485 28.426C146.851 28.93 146.034 29.182 145.035 29.182ZM154.853 29.182C153.36 29.182 152.132 28.692 151.171 27.712C150.21 26.7413 149.729 25.5373 149.729 24.1C149.729 22.6627 150.21 21.4587 151.171 20.488C152.132 19.508 153.36 19.018 154.853 19.018C155.74 19.018 156.561 19.2327 157.317 19.662C158.073 20.0913 158.661 20.67 159.081 21.398L157.947 22.056C157.667 21.5147 157.247 21.0853 156.687 20.768C156.136 20.4413 155.525 20.278 154.853 20.278C153.714 20.278 152.79 20.642 152.081 21.37C151.372 22.0887 151.017 22.9987 151.017 24.1C151.017 25.192 151.372 26.0973 152.081 26.816C152.79 27.544 153.714 27.908 154.853 27.908C155.525 27.908 156.136 27.7493 156.687 27.432C157.247 27.1053 157.667 26.676 157.947 26.144L159.081 26.788C158.67 27.516 158.087 28.0993 157.331 28.538C156.584 28.9673 155.758 29.182 154.853 29.182ZM168.157 29H166.715L164.517 25.248H162.207V29H160.905V19.2H164.825C165.665 19.2 166.384 19.4987 166.981 20.096C167.579 20.684 167.877 21.398 167.877 22.238C167.877 22.8727 167.686 23.4513 167.303 23.974C166.911 24.506 166.426 24.8747 165.847 25.08L168.157 29ZM164.825 20.418H162.207V24.072H164.825C165.311 24.072 165.721 23.8947 166.057 23.54C166.403 23.1853 166.575 22.7513 166.575 22.238C166.575 21.7247 166.403 21.2953 166.057 20.95C165.721 20.5953 165.311 20.418 164.825 20.418ZM169.814 29V19.2H171.116V29H169.814ZM179.168 23.918C179.626 24.142 179.985 24.4547 180.246 24.856C180.508 25.2573 180.638 25.7147 180.638 26.228C180.638 27.012 180.363 27.67 179.812 28.202C179.262 28.734 178.59 29 177.796 29H173.568V19.2H177.488C178.263 19.2 178.912 19.4567 179.434 19.97C179.966 20.4833 180.232 21.118 180.232 21.874C180.232 22.7513 179.878 23.4327 179.168 23.918ZM177.488 20.418H174.87V23.414H177.488C177.899 23.414 178.244 23.2693 178.524 22.98C178.804 22.6907 178.944 22.336 178.944 21.916C178.944 21.5053 178.8 21.1553 178.51 20.866C178.23 20.5673 177.89 20.418 177.488 20.418ZM174.87 27.782H177.796C178.235 27.782 178.604 27.628 178.902 27.32C179.201 27.012 179.35 26.634 179.35 26.186C179.35 25.7473 179.196 25.374 178.888 25.066C178.599 24.758 178.235 24.604 177.796 24.604H174.87V27.782ZM183.834 24.66V27.768H188.384V29H182.532V19.2H188.314V20.432H183.834V23.442H187.964V24.66H183.834ZM200.245 26.508V19.2H201.547V29H200.497L195.457 21.678V29H194.155V19.2H195.205L200.245 26.508ZM203.476 24.1C203.476 22.6813 203.966 21.482 204.946 20.502C205.926 19.5127 207.125 19.018 208.544 19.018C209.962 19.018 211.162 19.5127 212.142 20.502C213.131 21.482 213.626 22.6813 213.626 24.1C213.626 25.5093 213.131 26.7087 212.142 27.698C211.162 28.6873 209.962 29.182 208.544 29.182C207.125 29.182 205.926 28.6873 204.946 27.698C203.966 26.6993 203.476 25.5 203.476 24.1ZM212.324 24.1C212.324 23.0173 211.96 22.112 211.232 21.384C210.522 20.6467 209.626 20.278 208.544 20.278C207.47 20.278 206.57 20.6467 205.842 21.384C205.123 22.1213 204.764 23.0267 204.764 24.1C204.764 25.164 205.123 26.0693 205.842 26.816C206.57 27.544 207.47 27.908 208.544 27.908C209.626 27.908 210.522 27.544 211.232 26.816C211.96 26.0693 212.324 25.164 212.324 24.1ZM218.73 29H217.218L214.404 19.2H215.776L218.016 27.264L220.396 19.2H221.712L224.092 27.264L226.332 19.2H227.704L224.89 29H223.378L221.054 21.174L218.73 29Z" fill="#121212"/>
</svg>
