<svg width="175" height="56" viewBox="0 0 175 56" fill="none" xmlns="http://www.w3.org/2000/svg">
<rect x="0.5" y="0.5" width="174" height="55" stroke="#121212"/>
<path d="M45.688 22.3V32.092H50.52V33.5H44.2V22.3H45.688ZM53.9805 28.54V32.092H59.1805V33.5H52.4925V22.3H59.1005V23.708H53.9805V27.148H58.7005V28.54H53.9805ZM69.7449 33.5H68.0969L65.5849 29.212H62.9449V33.5H61.4569V22.3H65.9369C66.8969 22.3 67.7182 22.6413 68.4009 23.324C69.0835 23.996 69.4249 24.812 69.4249 25.772C69.4249 26.4973 69.2062 27.1587 68.7689 27.756C68.3209 28.364 67.7662 28.7853 67.1049 29.02L69.7449 33.5ZM65.9369 23.692H62.9449V27.868H65.9369C66.4915 27.868 66.9609 27.6653 67.3449 27.26C67.7395 26.8547 67.9369 26.3587 67.9369 25.772C67.9369 25.1853 67.7395 24.6947 67.3449 24.3C66.9609 23.8947 66.4915 23.692 65.9369 23.692ZM78.6781 30.652V22.3H80.1661V33.5H78.9661L73.2061 25.132V33.5H71.7181V22.3H72.9181L78.6781 30.652ZM96.3219 22.3H98.0019V33.5H96.5299V24.748L92.8659 30.844H92.6739L89.0099 24.764V33.5H87.5219V22.3H89.2019L92.7699 28.22L96.3219 22.3ZM100.285 27.9C100.285 26.2787 100.845 24.908 101.965 23.788C103.085 22.6573 104.456 22.092 106.077 22.092C107.698 22.092 109.069 22.6573 110.189 23.788C111.32 24.908 111.885 26.2787 111.885 27.9C111.885 29.5107 111.32 30.8813 110.189 32.012C109.069 33.1427 107.698 33.708 106.077 33.708C104.456 33.708 103.085 33.1427 101.965 32.012C100.845 30.8707 100.285 29.5 100.285 27.9ZM110.397 27.9C110.397 26.6627 109.981 25.628 109.149 24.796C108.338 23.9533 107.314 23.532 106.077 23.532C104.85 23.532 103.821 23.9533 102.989 24.796C102.168 25.6387 101.757 26.6733 101.757 27.9C101.757 29.116 102.168 30.1507 102.989 31.004C103.821 31.836 104.85 32.252 106.077 32.252C107.314 32.252 108.338 31.836 109.149 31.004C109.981 30.1507 110.397 29.116 110.397 27.9ZM122.442 33.5H120.794L118.282 29.212H115.642V33.5H114.154V22.3H118.634C119.594 22.3 120.415 22.6413 121.098 23.324C121.78 23.996 122.122 24.812 122.122 25.772C122.122 26.4973 121.903 27.1587 121.466 27.756C121.018 28.364 120.463 28.7853 119.802 29.02L122.442 33.5ZM118.634 23.692H115.642V27.868H118.634C119.188 27.868 119.658 27.6653 120.042 27.26C120.436 26.8547 120.634 26.3587 120.634 25.772C120.634 25.1853 120.436 24.6947 120.042 24.3C119.658 23.8947 119.188 23.692 118.634 23.692ZM125.903 28.54V32.092H131.103V33.5H124.415V22.3H131.023V23.708H125.903V27.148H130.623V28.54H125.903Z" fill="#121212"/>
</svg>
