<svg width="164" height="56" viewBox="0 0 164 56" fill="none" xmlns="http://www.w3.org/2000/svg">
<rect x="1" y="0.5" width="162" height="55" stroke="#121212"/>
<path d="M33.988 33.5H32.34L29.828 29.212H27.188V33.5H25.7V22.3H30.18C31.14 22.3 31.9613 22.6413 32.644 23.324C33.3267 23.996 33.668 24.812 33.668 25.772C33.668 26.4973 33.4493 27.1587 33.012 27.756C32.564 28.364 32.0093 28.7853 31.348 29.02L33.988 33.5ZM30.18 23.692H27.188V27.868H30.18C30.7347 27.868 31.204 27.6653 31.588 27.26C31.9827 26.8547 32.18 26.3587 32.18 25.772C32.18 25.1853 31.9827 24.6947 31.588 24.3C31.204 23.8947 30.7347 23.692 30.18 23.692ZM37.4492 28.54V32.092H42.6493V33.5H35.9612V22.3H42.5693V23.708H37.4492V27.148H42.1693V28.54H37.4492ZM54.0575 33.5H52.4735L51.5615 30.988H46.5215L45.6095 33.5H44.0255L48.2015 22.3H49.8815L54.0575 33.5ZM49.0335 24.076L47.0335 29.596H51.0495L49.0335 24.076ZM55.8588 22.3H60.2268C61.7414 22.3 63.0054 22.844 64.0188 23.932C65.0321 25.0093 65.5388 26.332 65.5388 27.9C65.5388 29.4573 65.0321 30.7853 64.0188 31.884C63.0054 32.9613 61.7414 33.5 60.2268 33.5H55.8588V22.3ZM57.3468 32.092H60.2268C61.3681 32.092 62.3014 31.692 63.0268 30.892C63.7521 30.0813 64.1148 29.084 64.1148 27.9C64.1148 26.716 63.7521 25.7187 63.0268 24.908C62.3014 24.108 61.3681 23.708 60.2268 23.708H57.3468V32.092ZM80.5911 33.5H78.9431L76.4311 29.212H73.7911V33.5H72.3031V22.3H76.7831C77.7431 22.3 78.5645 22.6413 79.2471 23.324C79.9298 23.996 80.2711 24.812 80.2711 25.772C80.2711 26.4973 80.0525 27.1587 79.6151 27.756C79.1671 28.364 78.6125 28.7853 77.9511 29.02L80.5911 33.5ZM76.7831 23.692H73.7911V27.868H76.7831C77.3378 27.868 77.8071 27.6653 78.1911 27.26C78.5858 26.8547 78.7831 26.3587 78.7831 25.772C78.7831 25.1853 78.5858 24.6947 78.1911 24.3C77.8071 23.8947 77.3378 23.692 76.7831 23.692ZM84.0524 28.54V32.092H89.2524V33.5H82.5644V22.3H89.1724V23.708H84.0524V27.148H88.7724V28.54H84.0524ZM96.1368 33.5H94.4568L90.4568 22.3H92.0568L95.3048 31.644L98.5368 22.3H100.153L96.1368 33.5ZM101.946 33.5V22.3H103.434V33.5H101.946ZM107.805 28.54V32.092H113.005V33.5H106.317V22.3H112.925V23.708H107.805V27.148H112.525V28.54H107.805ZM119.425 33.5H117.697L114.481 22.3H116.049L118.609 31.516L121.329 22.3H122.833L125.553 31.516L128.113 22.3H129.681L126.465 33.5H124.737L122.081 24.556L119.425 33.5ZM135.065 33.708C134.019 33.708 133.123 33.468 132.377 32.988C131.641 32.4973 131.123 31.82 130.825 30.956L132.105 30.22C132.531 31.5747 133.529 32.252 135.097 32.252C135.854 32.252 136.435 32.0973 136.841 31.788C137.257 31.4787 137.465 31.0573 137.465 30.524C137.465 30.0013 137.262 29.6013 136.857 29.324C136.494 29.0787 135.817 28.796 134.825 28.476L133.753 28.124C133.518 28.028 133.209 27.8893 132.825 27.708C132.451 27.516 132.179 27.324 132.009 27.132C131.539 26.62 131.305 25.996 131.305 25.26C131.305 24.2787 131.646 23.5107 132.329 22.956C133.011 22.38 133.843 22.092 134.825 22.092C135.699 22.092 136.467 22.3107 137.129 22.748C137.79 23.1853 138.286 23.7827 138.617 24.54L137.369 25.26C136.889 24.108 136.041 23.532 134.825 23.532C134.217 23.532 133.726 23.6813 133.353 23.98C132.979 24.2787 132.793 24.684 132.793 25.196C132.793 25.6867 132.969 26.06 133.321 26.316C133.683 26.5827 134.291 26.8493 135.145 27.116L135.801 27.324C136.163 27.4627 136.361 27.5373 136.393 27.548C136.734 27.676 137.107 27.852 137.513 28.076C137.801 28.236 138.089 28.4813 138.377 28.812C138.75 29.1853 138.937 29.7453 138.937 30.492C138.937 31.4733 138.579 32.2573 137.865 32.844C137.139 33.42 136.206 33.708 135.065 33.708Z" fill="#121212"/>
</svg>
