<svg width="343" height="48" viewBox="0 0 343 48" fill="none" xmlns="http://www.w3.org/2000/svg">
<rect width="343" height="48" fill="#121212"/>
<path d="M131.65 23.918C132.107 24.142 132.467 24.4547 132.728 24.856C132.989 25.2573 133.12 25.7147 133.12 26.228C133.12 27.012 132.845 27.67 132.294 28.202C131.743 28.734 131.071 29 130.278 29H126.05V19.2H129.97C130.745 19.2 131.393 19.4567 131.916 19.97C132.448 20.4833 132.714 21.118 132.714 21.874C132.714 22.7513 132.359 23.4327 131.65 23.918ZM129.97 20.418H127.352V23.414H129.97C130.381 23.414 130.726 23.2693 131.006 22.98C131.286 22.6907 131.426 22.336 131.426 21.916C131.426 21.5053 131.281 21.1553 130.992 20.866C130.712 20.5673 130.371 20.418 129.97 20.418ZM127.352 27.782H130.278C130.717 27.782 131.085 27.628 131.384 27.32C131.683 27.012 131.832 26.634 131.832 26.186C131.832 25.7473 131.678 25.374 131.37 25.066C131.081 24.758 130.717 24.604 130.278 24.604H127.352V27.782ZM134.495 24.1C134.495 22.6813 134.985 21.482 135.965 20.502C136.945 19.5127 138.145 19.018 139.563 19.018C140.982 19.018 142.181 19.5127 143.161 20.502C144.151 21.482 144.645 22.6813 144.645 24.1C144.645 25.5093 144.151 26.7087 143.161 27.698C142.181 28.6873 140.982 29.182 139.563 29.182C138.145 29.182 136.945 28.6873 135.965 27.698C134.985 26.6993 134.495 25.5 134.495 24.1ZM143.343 24.1C143.343 23.0173 142.979 22.112 142.251 21.384C141.542 20.6467 140.646 20.278 139.563 20.278C138.49 20.278 137.589 20.6467 136.861 21.384C136.143 22.1213 135.783 23.0267 135.783 24.1C135.783 25.164 136.143 26.0693 136.861 26.816C137.589 27.544 138.49 27.908 139.563 27.908C140.646 27.908 141.542 27.544 142.251 26.816C142.979 26.0693 143.343 25.164 143.343 24.1ZM146.043 24.1C146.043 22.6813 146.533 21.482 147.513 20.502C148.493 19.5127 149.692 19.018 151.111 19.018C152.529 19.018 153.729 19.5127 154.709 20.502C155.698 21.482 156.193 22.6813 156.193 24.1C156.193 25.5093 155.698 26.7087 154.709 27.698C153.729 28.6873 152.529 29.182 151.111 29.182C149.692 29.182 148.493 28.6873 147.513 27.698C146.533 26.6993 146.043 25.5 146.043 24.1ZM154.891 24.1C154.891 23.0173 154.527 22.112 153.799 21.384C153.089 20.6467 152.193 20.278 151.111 20.278C150.037 20.278 149.137 20.6467 148.409 21.384C147.69 22.1213 147.331 23.0267 147.331 24.1C147.331 25.164 147.69 26.0693 148.409 26.816C149.137 27.544 150.037 27.908 151.111 27.908C152.193 27.908 153.089 27.544 153.799 26.816C154.527 26.0693 154.891 25.164 154.891 24.1ZM160.768 23.96L165.234 29H163.638L159.41 24.296V29H158.108V19.2H159.41V23.624L163.498 19.2H165.094L160.768 23.96ZM178.433 29H177.047L176.249 26.802H171.839L171.041 29H169.655L173.309 19.2H174.779L178.433 29ZM174.037 20.754L172.287 25.584H175.801L174.037 20.754ZM188.395 29.182C186.902 29.182 185.674 28.692 184.713 27.712C183.752 26.7413 183.271 25.5373 183.271 24.1C183.271 22.6627 183.752 21.4587 184.713 20.488C185.674 19.508 186.902 19.018 188.395 19.018C189.282 19.018 190.103 19.2327 190.859 19.662C191.615 20.0913 192.203 20.67 192.623 21.398L191.489 22.056C191.209 21.5147 190.789 21.0853 190.229 20.768C189.678 20.4413 189.067 20.278 188.395 20.278C187.256 20.278 186.332 20.642 185.623 21.37C184.914 22.0887 184.559 22.9987 184.559 24.1C184.559 25.192 184.914 26.0973 185.623 26.816C186.332 27.544 187.256 27.908 188.395 27.908C189.067 27.908 189.678 27.7493 190.229 27.432C190.789 27.1053 191.209 26.676 191.489 26.144L192.623 26.788C192.212 27.516 191.629 28.0993 190.873 28.538C190.126 28.9673 189.3 29.182 188.395 29.182ZM202.178 29H200.792L199.994 26.802H195.584L194.786 29H193.4L197.054 19.2H198.524L202.178 29ZM197.782 20.754L196.032 25.584H199.546L197.782 20.754ZM204.986 19.2V27.768H209.214V29H203.684V19.2H204.986ZM212.172 19.2V27.768H216.4V29H210.87V19.2H212.172Z" fill="white"/>
</svg>
