<svg width="296" height="56" viewBox="0 0 296 56" fill="none" xmlns="http://www.w3.org/2000/svg">
<rect x="0.5" y="0.5" width="295" height="55" fill="white"/>
<rect x="0.5" y="0.5" width="295" height="55" stroke="#D2D2D7"/>
<path d="M20.396 26.012H22.832V27.174H20.396V29.61H19.234V27.174H16.812V26.012H19.234V23.59H20.396V26.012ZM30.1809 22.848L28.0529 25.718C28.8182 25.858 29.4342 26.1847 29.9009 26.698C30.3676 27.2113 30.6009 27.846 30.6009 28.602C30.6009 29.5633 30.2742 30.3147 29.6209 30.856C28.9582 31.4067 28.1649 31.682 27.2409 31.682C26.4756 31.682 25.8082 31.5093 25.2389 31.164C24.6696 30.8187 24.2636 30.3287 24.0209 29.694L25.1129 29.05C25.4022 29.9553 26.1116 30.408 27.2409 30.408C27.8569 30.408 28.3516 30.2493 28.7249 29.932C29.1076 29.6053 29.2989 29.162 29.2989 28.602C29.2989 28.042 29.1076 27.5987 28.7249 27.272C28.3516 26.9453 27.8569 26.782 27.2409 26.782H26.9049L26.3869 25.984L28.6549 22.918H24.3009V21.7H30.1809V22.848ZM36.8331 26.432C37.8504 26.9547 38.3591 27.748 38.3591 28.812C38.3591 29.708 38.0464 30.4127 37.4211 30.926C36.7864 31.43 35.9791 31.682 34.9991 31.682C34.0191 31.682 33.2164 31.43 32.5911 30.926C31.9658 30.4127 31.6531 29.708 31.6531 28.812C31.6531 27.748 32.1618 26.9547 33.1791 26.432C32.3764 25.928 31.9751 25.214 31.9751 24.29C31.9751 23.4033 32.2691 22.722 32.8571 22.246C33.4544 21.7607 34.1684 21.518 34.9991 21.518C35.8484 21.518 36.5624 21.7607 37.1411 22.246C37.7384 22.722 38.0371 23.4033 38.0371 24.29C38.0371 25.214 37.6358 25.928 36.8331 26.432ZM34.9991 22.764C34.4858 22.764 34.0658 22.8993 33.7391 23.17C33.4218 23.4407 33.2631 23.8233 33.2631 24.318C33.2631 24.8033 33.4264 25.186 33.7531 25.466C34.0798 25.746 34.4951 25.886 34.9991 25.886C35.5031 25.886 35.9184 25.746 36.2451 25.466C36.5718 25.186 36.7351 24.8033 36.7351 24.318C36.7351 23.8233 36.5764 23.4407 36.2591 23.17C35.9418 22.8993 35.5218 22.764 34.9991 22.764ZM34.9991 30.436C35.6338 30.436 36.1378 30.2867 36.5111 29.988C36.8844 29.6893 37.0711 29.2693 37.0711 28.728C37.0711 28.196 36.8844 27.7807 36.5111 27.482C36.1378 27.1833 35.6338 27.034 34.9991 27.034C34.3738 27.034 33.8744 27.1833 33.5011 27.482C33.1278 27.7807 32.9411 28.196 32.9411 28.728C32.9411 29.2693 33.1278 29.6893 33.5011 29.988C33.8744 30.2867 34.3738 30.436 34.9991 30.436ZM46.0827 30.296C45.4294 31.22 44.5007 31.682 43.2967 31.682C42.0927 31.682 41.1641 31.22 40.5107 30.296C39.8481 29.3627 39.5167 28.1307 39.5167 26.6C39.5167 25.0693 39.8481 23.8373 40.5107 22.904C41.1641 21.98 42.0927 21.518 43.2967 21.518C44.5007 21.518 45.4294 21.98 46.0827 22.904C46.7454 23.8373 47.0767 25.0693 47.0767 26.6C47.0767 28.1307 46.7454 29.3627 46.0827 30.296ZM40.8187 26.6C40.8187 27.8133 41.0334 28.7513 41.4627 29.414C41.8921 30.0767 42.5034 30.408 43.2967 30.408C44.0901 30.408 44.7014 30.0767 45.1307 29.414C45.5694 28.7513 45.7887 27.8133 45.7887 26.6C45.7887 25.3867 45.5694 24.4487 45.1307 23.786C44.7014 23.114 44.0901 22.778 43.2967 22.778C42.5034 22.778 41.8921 23.1093 41.4627 23.772C41.0334 24.4347 40.8187 25.3773 40.8187 26.6ZM56.0771 26.446L59.2271 31.5H57.7431L55.3351 27.636L52.9271 31.5H51.4571L54.6071 26.46L51.6391 21.7H53.1091L55.3351 25.27L57.5611 21.7H59.0311L56.0771 26.446ZM64.3349 26.446L67.4849 31.5H66.0009L63.5929 27.636L61.1849 31.5H59.7149L62.8649 26.46L59.8969 21.7H61.3669L63.5929 25.27L65.8189 21.7H67.2889L64.3349 26.446ZM76.0927 26.446L79.2427 31.5H77.7587L75.3507 27.636L72.9427 31.5H71.4727L74.6227 26.46L71.6547 21.7H73.1247L75.3507 25.27L77.5767 21.7H79.0467L76.0927 26.446ZM84.3505 26.446L87.5005 31.5H86.0165L83.6085 27.636L81.2005 31.5H79.7305L82.8805 26.46L79.9125 21.7H81.3825L83.6085 25.27L85.8345 21.7H87.3045L84.3505 26.446ZM92.6083 26.446L95.7583 31.5H94.2743L91.8663 27.636L89.4583 31.5H87.9883L91.1383 26.46L88.1703 21.7H89.6403L91.8663 25.27L94.0923 21.7H95.5623L92.6083 26.446ZM104.366 26.446L107.516 31.5H106.032L103.624 27.636L101.216 31.5H99.7461L102.896 26.46L99.9281 21.7H101.398L103.624 25.27L105.85 21.7H107.32L104.366 26.446ZM112.624 26.446L115.774 31.5H114.29L111.882 27.636L109.474 31.5H108.004L111.154 26.46L108.186 21.7H109.656L111.882 25.27L114.108 21.7H115.578L112.624 26.446ZM124.382 26.446L127.532 31.5H126.048L123.64 27.636L121.232 31.5H119.762L122.912 26.46L119.944 21.7H121.414L123.64 25.27L125.866 21.7H127.336L124.382 26.446ZM132.64 26.446L135.79 31.5H134.306L131.898 27.636L129.49 31.5H128.02L131.17 26.46L128.202 21.7H129.672L131.898 25.27L134.124 21.7H135.594L132.64 26.446Z" fill="#808080"/>
</svg>
