<svg width="343" height="48" viewBox="0 0 343 48" fill="none" xmlns="http://www.w3.org/2000/svg">
<rect x="0.5" y="0.5" width="342" height="47" fill="white"/>
<rect x="0.5" y="0.5" width="342" height="47" stroke="#D2D2D7"/>
<path d="M20.396 22.012H22.832V23.174H20.396V25.61H19.234V23.174H16.812V22.012H19.234V19.59H20.396V22.012ZM30.1809 18.848L28.0529 21.718C28.8182 21.858 29.4342 22.1847 29.9009 22.698C30.3676 23.2113 30.6009 23.846 30.6009 24.602C30.6009 25.5633 30.2742 26.3147 29.6209 26.856C28.9582 27.4067 28.1649 27.682 27.2409 27.682C26.4756 27.682 25.8082 27.5093 25.2389 27.164C24.6696 26.8187 24.2636 26.3287 24.0209 25.694L25.1129 25.05C25.4022 25.9553 26.1116 26.408 27.2409 26.408C27.8569 26.408 28.3516 26.2493 28.7249 25.932C29.1076 25.6053 29.2989 25.162 29.2989 24.602C29.2989 24.042 29.1076 23.5987 28.7249 23.272C28.3516 22.9453 27.8569 22.782 27.2409 22.782H26.9049L26.3869 21.984L28.6549 18.918H24.3009V17.7H30.1809V18.848ZM36.8331 22.432C37.8504 22.9547 38.3591 23.748 38.3591 24.812C38.3591 25.708 38.0464 26.4127 37.4211 26.926C36.7864 27.43 35.9791 27.682 34.9991 27.682C34.0191 27.682 33.2164 27.43 32.5911 26.926C31.9658 26.4127 31.6531 25.708 31.6531 24.812C31.6531 23.748 32.1618 22.9547 33.1791 22.432C32.3764 21.928 31.9751 21.214 31.9751 20.29C31.9751 19.4033 32.2691 18.722 32.8571 18.246C33.4544 17.7607 34.1684 17.518 34.9991 17.518C35.8484 17.518 36.5624 17.7607 37.1411 18.246C37.7384 18.722 38.0371 19.4033 38.0371 20.29C38.0371 21.214 37.6358 21.928 36.8331 22.432ZM34.9991 18.764C34.4858 18.764 34.0658 18.8993 33.7391 19.17C33.4218 19.4407 33.2631 19.8233 33.2631 20.318C33.2631 20.8033 33.4264 21.186 33.7531 21.466C34.0798 21.746 34.4951 21.886 34.9991 21.886C35.5031 21.886 35.9184 21.746 36.2451 21.466C36.5718 21.186 36.7351 20.8033 36.7351 20.318C36.7351 19.8233 36.5764 19.4407 36.2591 19.17C35.9418 18.8993 35.5218 18.764 34.9991 18.764ZM34.9991 26.436C35.6338 26.436 36.1378 26.2867 36.5111 25.988C36.8844 25.6893 37.0711 25.2693 37.0711 24.728C37.0711 24.196 36.8844 23.7807 36.5111 23.482C36.1378 23.1833 35.6338 23.034 34.9991 23.034C34.3738 23.034 33.8744 23.1833 33.5011 23.482C33.1278 23.7807 32.9411 24.196 32.9411 24.728C32.9411 25.2693 33.1278 25.6893 33.5011 25.988C33.8744 26.2867 34.3738 26.436 34.9991 26.436ZM46.0827 26.296C45.4294 27.22 44.5007 27.682 43.2967 27.682C42.0927 27.682 41.1641 27.22 40.5107 26.296C39.8481 25.3627 39.5167 24.1307 39.5167 22.6C39.5167 21.0693 39.8481 19.8373 40.5107 18.904C41.1641 17.98 42.0927 17.518 43.2967 17.518C44.5007 17.518 45.4294 17.98 46.0827 18.904C46.7454 19.8373 47.0767 21.0693 47.0767 22.6C47.0767 24.1307 46.7454 25.3627 46.0827 26.296ZM40.8187 22.6C40.8187 23.8133 41.0334 24.7513 41.4627 25.414C41.8921 26.0767 42.5034 26.408 43.2967 26.408C44.0901 26.408 44.7014 26.0767 45.1307 25.414C45.5694 24.7513 45.7887 23.8133 45.7887 22.6C45.7887 21.3867 45.5694 20.4487 45.1307 19.786C44.7014 19.114 44.0901 18.778 43.2967 18.778C42.5034 18.778 41.8921 19.1093 41.4627 19.772C41.0334 20.4347 40.8187 21.3773 40.8187 22.6ZM56.0771 22.446L59.2271 27.5H57.7431L55.3351 23.636L52.9271 27.5H51.4571L54.6071 22.46L51.6391 17.7H53.1091L55.3351 21.27L57.5611 17.7H59.0311L56.0771 22.446ZM64.3349 22.446L67.4849 27.5H66.0009L63.5929 23.636L61.1849 27.5H59.7149L62.8649 22.46L59.8969 17.7H61.3669L63.5929 21.27L65.8189 17.7H67.2889L64.3349 22.446ZM76.0927 22.446L79.2427 27.5H77.7587L75.3507 23.636L72.9427 27.5H71.4727L74.6227 22.46L71.6547 17.7H73.1247L75.3507 21.27L77.5767 17.7H79.0467L76.0927 22.446ZM84.3505 22.446L87.5005 27.5H86.0165L83.6085 23.636L81.2005 27.5H79.7305L82.8805 22.46L79.9125 17.7H81.3825L83.6085 21.27L85.8345 17.7H87.3045L84.3505 22.446ZM92.6083 22.446L95.7583 27.5H94.2743L91.8663 23.636L89.4583 27.5H87.9883L91.1383 22.46L88.1703 17.7H89.6403L91.8663 21.27L94.0923 17.7H95.5623L92.6083 22.446ZM104.366 22.446L107.516 27.5H106.032L103.624 23.636L101.216 27.5H99.7461L102.896 22.46L99.9281 17.7H101.398L103.624 21.27L105.85 17.7H107.32L104.366 22.446ZM112.624 22.446L115.774 27.5H114.29L111.882 23.636L109.474 27.5H108.004L111.154 22.46L108.186 17.7H109.656L111.882 21.27L114.108 17.7H115.578L112.624 22.446ZM124.382 22.446L127.532 27.5H126.048L123.64 23.636L121.232 27.5H119.762L122.912 22.46L119.944 17.7H121.414L123.64 21.27L125.866 17.7H127.336L124.382 22.446ZM132.64 22.446L135.79 27.5H134.306L131.898 23.636L129.49 27.5H128.02L131.17 22.46L128.202 17.7H129.672L131.898 21.27L134.124 17.7H135.594L132.64 22.446Z" fill="#808080"/>
</svg>
