<svg width="15" height="20" viewBox="0 0 15 20" fill="none" xmlns="http://www.w3.org/2000/svg">
<path d="M1.8 19.5C1.3 19.5 0.875 19.325 0.525 18.975C0.175 18.625 0 18.2 0 17.7V8.3C0 7.8 0.175 7.375 0.525 7.025C0.875 6.675 1.3 6.5 1.8 6.5H3V4.5C3 3.25 3.43733 2.18733 4.312 1.312C5.18733 0.437333 6.25 0 7.5 0C8.75 0 9.81267 0.437333 10.688 1.312C11.5627 2.18733 12 3.25 12 4.5V6.5H13.2C13.7 6.5 14.125 6.675 14.475 7.025C14.825 7.375 15 7.8 15 8.3V17.7C15 18.2 14.825 18.625 14.475 18.975C14.125 19.325 13.7 19.5 13.2 19.5H1.8ZM1.8 18H13.2C13.2833 18 13.3543 17.971 13.413 17.913C13.471 17.8543 13.5 17.7833 13.5 17.7V8.3C13.5 8.21667 13.471 8.14567 13.413 8.087C13.3543 8.029 13.2833 8 13.2 8H1.8C1.71667 8 1.646 8.029 1.588 8.087C1.52933 8.14567 1.5 8.21667 1.5 8.3V17.7C1.5 17.7833 1.52933 17.8543 1.588 17.913C1.646 17.971 1.71667 18 1.8 18ZM7.5 14.75C7.98333 14.75 8.396 14.5793 8.738 14.238C9.07933 13.896 9.25 13.4833 9.25 13C9.25 12.5167 9.07933 12.104 8.738 11.762C8.396 11.4207 7.98333 11.25 7.5 11.25C7.01667 11.25 6.604 11.4207 6.262 11.762C5.92067 12.104 5.75 12.5167 5.75 13C5.75 13.4833 5.92067 13.896 6.262 14.238C6.604 14.5793 7.01667 14.75 7.5 14.75ZM4.5 6.5H10.5V4.5C10.5 3.66667 10.2083 2.95833 9.625 2.375C9.04167 1.79167 8.33333 1.5 7.5 1.5C6.66667 1.5 5.95833 1.79167 5.375 2.375C4.79167 2.95833 4.5 3.66667 4.5 4.5V6.5ZM1.5 18V8V18Z" fill="#121212"/>
</svg>
